<mxfile host="app.diagrams.net" modified="2023-12-05T17:10:04.889Z" agent="Mozilla/5.0 (Windows NT 10.0; Win64; x64) AppleWebKit/537.36 (KHTML, like Gecko) Chrome/119.0.0.0 Safari/537.36" etag="gYa_2Pb5Ndw5Sc2iI3k-" version="22.1.5" type="onedrive">
  <diagram name="Trang-1" id="lESvWqGXMgMA0L3YBJar">
    <mxGraphModel dx="1310" dy="593" grid="1" gridSize="10" guides="1" tooltips="1" connect="1" arrows="1" fold="1" page="1" pageScale="1" pageWidth="827" pageHeight="1169" math="0" shadow="0">
      <root>
        <mxCell id="0" />
        <mxCell id="1" parent="0" />
        <mxCell id="0fw28tti5R0HODQeyHjG-2" style="edgeStyle=orthogonalEdgeStyle;rounded=0;orthogonalLoop=1;jettySize=auto;html=1;" edge="1" parent="1" source="0fw28tti5R0HODQeyHjG-3" target="0fw28tti5R0HODQeyHjG-5">
          <mxGeometry relative="1" as="geometry">
            <mxPoint x="100" y="180" as="targetPoint" />
          </mxGeometry>
        </mxCell>
        <mxCell id="0fw28tti5R0HODQeyHjG-3" value="Start" style="ellipse;whiteSpace=wrap;html=1;" vertex="1" parent="1">
          <mxGeometry x="40" y="50" width="120" height="80" as="geometry" />
        </mxCell>
        <mxCell id="0fw28tti5R0HODQeyHjG-4" style="edgeStyle=orthogonalEdgeStyle;rounded=0;orthogonalLoop=1;jettySize=auto;html=1;" edge="1" parent="1" source="0fw28tti5R0HODQeyHjG-5" target="0fw28tti5R0HODQeyHjG-7">
          <mxGeometry relative="1" as="geometry">
            <mxPoint x="100" y="280" as="targetPoint" />
          </mxGeometry>
        </mxCell>
        <mxCell id="0fw28tti5R0HODQeyHjG-5" value="FILE *file,&lt;br&gt;fileName[]&lt;br&gt;numLines&lt;br&gt;line[100]" style="shape=parallelogram;perimeter=parallelogramPerimeter;whiteSpace=wrap;html=1;fixedSize=1;" vertex="1" parent="1">
          <mxGeometry x="15" y="170" width="170" height="70" as="geometry" />
        </mxCell>
        <mxCell id="0fw28tti5R0HODQeyHjG-6" style="edgeStyle=orthogonalEdgeStyle;rounded=0;orthogonalLoop=1;jettySize=auto;html=1;entryX=0.5;entryY=0;entryDx=0;entryDy=0;" edge="1" parent="1" source="0fw28tti5R0HODQeyHjG-7">
          <mxGeometry relative="1" as="geometry">
            <mxPoint x="100" y="390" as="targetPoint" />
          </mxGeometry>
        </mxCell>
        <mxCell id="0fw28tti5R0HODQeyHjG-7" value="file = fopen (bt3.txt)" style="rounded=0;whiteSpace=wrap;html=1;" vertex="1" parent="1">
          <mxGeometry x="40" y="280" width="120" height="60" as="geometry" />
        </mxCell>
        <mxCell id="0fw28tti5R0HODQeyHjG-12" style="edgeStyle=orthogonalEdgeStyle;rounded=0;orthogonalLoop=1;jettySize=auto;html=1;" edge="1" parent="1" source="0fw28tti5R0HODQeyHjG-13" target="0fw28tti5R0HODQeyHjG-14">
          <mxGeometry relative="1" as="geometry">
            <mxPoint x="100" y="700" as="targetPoint" />
          </mxGeometry>
        </mxCell>
        <mxCell id="0fw28tti5R0HODQeyHjG-13" value="fclose ( file )" style="rounded=0;whiteSpace=wrap;html=1;" vertex="1" parent="1">
          <mxGeometry x="45" y="790" width="120" height="60" as="geometry" />
        </mxCell>
        <mxCell id="0fw28tti5R0HODQeyHjG-14" value="END" style="ellipse;whiteSpace=wrap;html=1;" vertex="1" parent="1">
          <mxGeometry x="45" y="910" width="120" height="80" as="geometry" />
        </mxCell>
        <mxCell id="0fw28tti5R0HODQeyHjG-16" style="edgeStyle=orthogonalEdgeStyle;rounded=0;orthogonalLoop=1;jettySize=auto;html=1;" edge="1" parent="1" source="0fw28tti5R0HODQeyHjG-15">
          <mxGeometry relative="1" as="geometry">
            <mxPoint x="100" y="530" as="targetPoint" />
          </mxGeometry>
        </mxCell>
        <mxCell id="0fw28tti5R0HODQeyHjG-17" value="False" style="edgeLabel;html=1;align=center;verticalAlign=middle;resizable=0;points=[];" vertex="1" connectable="0" parent="0fw28tti5R0HODQeyHjG-16">
          <mxGeometry x="-0.0922" y="2" relative="1" as="geometry">
            <mxPoint as="offset" />
          </mxGeometry>
        </mxCell>
        <mxCell id="0fw28tti5R0HODQeyHjG-18" style="edgeStyle=orthogonalEdgeStyle;rounded=0;orthogonalLoop=1;jettySize=auto;html=1;" edge="1" parent="1" source="0fw28tti5R0HODQeyHjG-15">
          <mxGeometry relative="1" as="geometry">
            <mxPoint x="340" y="740" as="targetPoint" />
          </mxGeometry>
        </mxCell>
        <mxCell id="0fw28tti5R0HODQeyHjG-26" value="True" style="edgeLabel;html=1;align=center;verticalAlign=middle;resizable=0;points=[];" vertex="1" connectable="0" parent="0fw28tti5R0HODQeyHjG-18">
          <mxGeometry x="-0.2388" y="1" relative="1" as="geometry">
            <mxPoint as="offset" />
          </mxGeometry>
        </mxCell>
        <mxCell id="0fw28tti5R0HODQeyHjG-15" value="file == NULL" style="rhombus;whiteSpace=wrap;html=1;" vertex="1" parent="1">
          <mxGeometry x="45" y="390" width="110" height="70" as="geometry" />
        </mxCell>
        <mxCell id="0fw28tti5R0HODQeyHjG-20" style="edgeStyle=orthogonalEdgeStyle;rounded=0;orthogonalLoop=1;jettySize=auto;html=1;" edge="1" parent="1" source="0fw28tti5R0HODQeyHjG-19">
          <mxGeometry relative="1" as="geometry">
            <mxPoint x="100" y="680" as="targetPoint" />
          </mxGeometry>
        </mxCell>
        <mxCell id="0fw28tti5R0HODQeyHjG-21" value="True" style="edgeLabel;html=1;align=center;verticalAlign=middle;resizable=0;points=[];" vertex="1" connectable="0" parent="0fw28tti5R0HODQeyHjG-20">
          <mxGeometry x="-0.149" y="3" relative="1" as="geometry">
            <mxPoint as="offset" />
          </mxGeometry>
        </mxCell>
        <mxCell id="0fw28tti5R0HODQeyHjG-22" style="edgeStyle=orthogonalEdgeStyle;rounded=0;orthogonalLoop=1;jettySize=auto;html=1;entryX=0;entryY=0.5;entryDx=0;entryDy=0;" edge="1" parent="1" source="0fw28tti5R0HODQeyHjG-19" target="0fw28tti5R0HODQeyHjG-14">
          <mxGeometry relative="1" as="geometry">
            <mxPoint x="10" y="820" as="targetPoint" />
            <Array as="points">
              <mxPoint y="570" />
              <mxPoint y="950" />
            </Array>
          </mxGeometry>
        </mxCell>
        <mxCell id="0fw28tti5R0HODQeyHjG-28" value="False" style="edgeLabel;html=1;align=center;verticalAlign=middle;resizable=0;points=[];" vertex="1" connectable="0" parent="0fw28tti5R0HODQeyHjG-22">
          <mxGeometry x="-0.8" y="-1" relative="1" as="geometry">
            <mxPoint as="offset" />
          </mxGeometry>
        </mxCell>
        <mxCell id="0fw28tti5R0HODQeyHjG-19" value="i &amp;lt; sizeof (line)" style="rhombus;whiteSpace=wrap;html=1;" vertex="1" parent="1">
          <mxGeometry x="45" y="530" width="110" height="80" as="geometry" />
        </mxCell>
        <mxCell id="0fw28tti5R0HODQeyHjG-24" style="edgeStyle=orthogonalEdgeStyle;rounded=0;orthogonalLoop=1;jettySize=auto;html=1;" edge="1" parent="1" source="0fw28tti5R0HODQeyHjG-23">
          <mxGeometry relative="1" as="geometry">
            <mxPoint x="100" y="790" as="targetPoint" />
          </mxGeometry>
        </mxCell>
        <mxCell id="0fw28tti5R0HODQeyHjG-23" value="in ra chuoi" style="shape=parallelogram;perimeter=parallelogramPerimeter;whiteSpace=wrap;html=1;fixedSize=1;" vertex="1" parent="1">
          <mxGeometry x="40" y="680" width="120" height="60" as="geometry" />
        </mxCell>
        <mxCell id="0fw28tti5R0HODQeyHjG-27" style="edgeStyle=orthogonalEdgeStyle;rounded=0;orthogonalLoop=1;jettySize=auto;html=1;entryX=1;entryY=0.5;entryDx=0;entryDy=0;" edge="1" parent="1" source="0fw28tti5R0HODQeyHjG-25" target="0fw28tti5R0HODQeyHjG-14">
          <mxGeometry relative="1" as="geometry">
            <Array as="points">
              <mxPoint x="340" y="950" />
            </Array>
          </mxGeometry>
        </mxCell>
        <mxCell id="0fw28tti5R0HODQeyHjG-25" value="Khong mo duoc file" style="shape=parallelogram;perimeter=parallelogramPerimeter;whiteSpace=wrap;html=1;fixedSize=1;" vertex="1" parent="1">
          <mxGeometry x="270" y="740" width="140" height="60" as="geometry" />
        </mxCell>
      </root>
    </mxGraphModel>
  </diagram>
</mxfile>
